HIERARCHY
ROOT root
{
	OFFSET	0	13.1	24.9
	CHANNELS 6  Xposition Yposition Zposition Xrotation Yrotation Zrotation
	JOINT spine_1
	{
		OFFSET	0	9.99999	0
		CHANNELS 3  Xrotation Yrotation Zrotation
		JOINT spine_2
		{
			OFFSET	0	112	-10
			CHANNELS 3  Xrotation Yrotation Zrotation
			JOINT spine_3
			{
				OFFSET	0	206.5	19.3
				CHANNELS 3  Xrotation Yrotation Zrotation
				JOINT spine_4
				{
					OFFSET	0	110.4	14.6
					CHANNELS 3  Xrotation Yrotation Zrotation
					JOINT neck_1
					{
						OFFSET	0	71.8	-50.3
						CHANNELS 3  Xrotation Yrotation Zrotation
						JOINT neck_2
						{
							OFFSET	0	86.2	-25.8
							CHANNELS 3  Xrotation Yrotation Zrotation
							JOINT head_ee
							{
								OFFSET	0	179.8	-8.7
								CHANNELS 3  Xrotation Yrotation Zrotation
								End Site
								{
									OFFSET	1	0	0
								}
							}
						}
					}
					JOINT left_clavicle
					{
						OFFSET	-43.2	22.4	-70.8
						CHANNELS 3  Xrotation Yrotation Zrotation
						JOINT left_shoulder
						{
							OFFSET	-93.9	-5.79999	48.7
							CHANNELS 3  Xrotation Yrotation Zrotation
							JOINT left_elbow
							{
								OFFSET	-291.4	-30.8	15.2
								CHANNELS 3  Xrotation Yrotation Zrotation
								JOINT left_lowarm_twist
								{
									OFFSET	-110.7	-3.89999	13.6
									CHANNELS 3  Xrotation Yrotation Zrotation
									JOINT left_hand
									{
										OFFSET	-110.7	-3.89999	13.6
										CHANNELS 3  Xrotation Yrotation Zrotation
										JOINT left_ee
										{
											OFFSET	-80.8	-5.10001	12.1
											CHANNELS 3  Xrotation Yrotation Zrotation
											End Site
											{
												OFFSET	1	0	0
											}
										}
									}
								}
							}
						}
					}
					JOINT right_clavicle
					{
						OFFSET	43.2	22.4	-70.8
						CHANNELS 3  Xrotation Yrotation Zrotation
						JOINT right_shoulder
						{
							OFFSET	93.9	-5.79999	48.7
							CHANNELS 3  Xrotation Yrotation Zrotation
							JOINT right_elbow
							{
								OFFSET	291.4	-30.8	15.2
								CHANNELS 3  Xrotation Yrotation Zrotation
								JOINT right_lowarm_twist
								{
									OFFSET	110.7	-3.89999	13.6
									CHANNELS 3  Xrotation Yrotation Zrotation
									JOINT right_hand
									{
										OFFSET	110.7	-3.89999	13.6
										CHANNELS 3  Xrotation Yrotation Zrotation
										JOINT right_ee
										{
											OFFSET	80.8	-5.10001	12.1
											CHANNELS 3  Xrotation Yrotation Zrotation
											End Site
											{
												OFFSET	1	0	0
											}
										}
									}
								}
							}
						}
					}
				}
			}
		}
	}
	JOINT left_hip
	{
		OFFSET	-82.8	-127.5	0.300001
		CHANNELS 3  Xrotation Yrotation Zrotation
		JOINT left_knee
		{
			OFFSET	-28.2	-396.7	2.2
			CHANNELS 3  Xrotation Yrotation Zrotation
			JOINT left_ankle
			{
				OFFSET	-11.7	-411.3	35.4
				CHANNELS 3  Xrotation Yrotation Zrotation
				JOINT left_toes
				{
					OFFSET	0	-60	-88.6
					CHANNELS 3  Xrotation Yrotation Zrotation
					JOINT left_foot_ee
					{
						OFFSET	-22.5	-16.5	-42.2
						CHANNELS 3  Xrotation Yrotation Zrotation
						End Site
						{
							OFFSET	1	0	0
						}
					}
				}
			}
		}
	}
	JOINT right_hip
	{
		OFFSET	82.8	-127.5	0.300001
		CHANNELS 3  Xrotation Yrotation Zrotation
		JOINT right_knee
		{
			OFFSET	28.2	-396.7	2.2
			CHANNELS 3  Xrotation Yrotation Zrotation
			JOINT right_ankle
			{
				OFFSET	11.7	-411.3	35.4
				CHANNELS 3  Xrotation Yrotation Zrotation
				JOINT right_toes
				{
					OFFSET	0	-60	-88.6
					CHANNELS 3  Xrotation Yrotation Zrotation
					JOINT right_foot_ee
					{
						OFFSET	22.5	-16.5	-42.2
						CHANNELS 3  Xrotation Yrotation Zrotation
						End Site
						{
							OFFSET	1	0	0
						}
					}
				}
			}
		}
	}
}
MOTION
Frames: 8
Frame Time: 0.02
2800.94 716.97 -1473.77 0.771474201246 62.6565465062 -7.31276015921 2.31519 0.912323 3.24198 2.32076 0.704294 3.29338 2.36092 0.135677 3.36504 2.34574 0.665127 3.30151 -17.3542 17.7218 -1.69346 -18.9873 34.9507 5.71468 -0.0 0.0 -0.0 -7.93086 23.7461 -8.20152 13.017 -21.8645 64.2672 3.25593 -58.1878 1.81211 -13.7606 -0.682695 1.61738 -0.807882 6.03415 -2.76244 -0.0 0.0 -0.0 10.9764 10.5887 -21.9808 -24.1782 13.4527 -68.7193 0.55587 15.3957 -0.0751358 14.9205 -0.282382 1.87967 1.96358 10.7229 -8.72305 0.0 0.0 0.0 -33.9612 34.1938 19.7735 -6.59053 0.214709 0.988107 37.4929 -18.3768 -5.05529 -35.2847 0.0 0.0 -0.0 0.0 -0.0 28.6234 18.5043 -10.3904 -5.48722 -0.186717 -0.821107 12.4728 -5.166 1.75894 -11.9251 0.0 0.0 0.0 0.0 0.0 
2800.94 716.97 -1473.77 0.750737681628 61.8351630209 -7.28932844633 2.31519 0.912323 3.24198 2.32076 0.704294 3.29338 2.36092 0.135677 3.36504 2.34574 0.665127 3.30151 -17.3542 17.7218 -1.69346 -18.9873 34.9507 5.71468 -0.0 0.0 -0.0 -7.93086 23.7461 -8.20152 13.017 -21.8645 64.2672 3.25593 -58.1878 1.81211 -13.7606 -0.682695 1.61738 -0.807882 6.03415 -2.76244 -0.0 0.0 -0.0 10.9764 10.5887 -21.9808 -24.1782 13.4527 -68.7193 0.55587 15.3957 -0.0751358 14.9205 -0.282382 1.87967 1.96358 10.7229 -8.72305 0.0 0.0 0.0 -33.9612 34.1938 19.7735 -6.59053 0.214709 0.988107 37.4929 -18.3768 -5.05529 -35.2847 0.0 0.0 -0.0 0.0 -0.0 28.6234 18.5043 -10.3904 -5.48722 -0.186717 -0.821107 12.4728 -5.166 1.75894 -11.9251 0.0 0.0 0.0 0.0 0.0 
2779.32090341 713.288 -1479.82108772 1.35868002829 63.4049319129 -7.54513436533 2.2905 0.82579 3.21275 2.29603 0.619793 3.25872 2.33095 0.0563975 3.31659 2.31606 0.579201 3.26617 -16.9067 17.6147 -2.2816 -18.4718 35.0602 4.96154 -0.0 0.0 -0.0 -8.26929 23.8735 -8.63901 11.2367 -23.1194 65.0184 3.07963 -56.7433 1.66346 -14.801 -0.749839 1.73237 -0.556536 6.33149 -0.991292 -0.0 0.0 -0.0 11.2279 11.0484 -22.5372 -23.7755 12.7858 -69.3477 0.387419 10.8641 -0.0368405 15.0624 -0.282702 1.8978 2.06689 9.83967 -9.81702 0.0 0.0 0.0 -33.8419 32.116 18.114 -7.01739 0.224675 1.05285 38.4819 -18.8992 -5.16904 -37.9929 0.0 0.0 -0.0 0.0 -0.0 28.8777 18.0211 -9.96615 -7.51152 -0.235609 -1.12789 12.3572 -4.31634 1.74474 -11.0635 0.0 0.0 0.0 0.0 0.0 
2753.35993055 716.921 -1488.13856259 1.11991362754 65.5418124957 -7.23582779732 2.28052 0.545924 3.23316 2.28627 0.339196 3.2613 2.30503 -0.222492 3.27132 2.29022 0.296663 3.26544 -16.014 17.143 -3.74097 -17.396 34.9674 3.07113 -0.0 0.0 -0.0 -8.6792 24.078 -9.14894 8.28145 -23.4339 65.5742 2.65023 -52.6942 1.31271 -15.8964 -0.822787 1.85211 -0.525657 7.50145 -0.28982 -0.0 0.0 -0.0 11.4428 11.154 -23.0178 -22.7155 12.8718 -70.0728 0.365528 10.2637 -0.0328274 15.2769 -0.283101 1.92519 2.10074 9.04088 -10.3983 0.0 0.0 0.0 -30.9821 29.7152 14.9121 -10.9545 0.293772 1.65293 38.5252 -19.0062 -5.17736 -40.1582 0.0 0.0 -0.0 0.0 -0.0 28.3755 17.6794 -10.0729 -10.1199 -0.282573 -1.52536 14.891 -2.57444 2.08615 -9.86341 0.0 0.0 0.0 0.0 0.0 
2753.60453679 716.921 -1488.92495045 1.08069659482 64.5926028461 -7.19258169909 2.28052 0.545924 3.23316 2.28627 0.339196 3.2613 2.30503 -0.222492 3.27132 2.29022 0.296663 3.26544 -16.014 17.143 -3.74097 -17.396 34.9674 3.07113 -0.0 0.0 -0.0 -8.6792 24.078 -9.14894 8.28145 -23.4339 65.5742 2.65023 -52.6942 1.31271 -15.8964 -0.822787 1.85211 -0.525657 7.50145 -0.28982 -0.0 0.0 -0.0 11.4428 11.154 -23.0178 -22.7155 12.8718 -70.0728 0.365528 10.2637 -0.0328274 15.2769 -0.283101 1.92519 2.10074 9.04088 -10.3983 0.0 0.0 0.0 -30.9821 29.7152 14.9121 -10.9545 0.293772 1.65293 38.5252 -19.0062 -5.17736 -40.1582 0.0 0.0 -0.0 0.0 -0.0 28.3755 17.6794 -10.0729 -10.1199 -0.282573 -1.52536 14.891 -2.57444 2.08615 -9.86341 0.0 0.0 0.0 0.0 0.0 
2720.2121578 724.266 -1498.71133104 1.47783418296 66.0137327904 -7.32174723781 2.21546 0.399066 3.3126 2.22154 0.187588 3.33125 2.23186 -0.388319 3.31387 2.21656 0.139618 3.3336 -17.5637 17.2728 -1.92802 -19.1473 34.22 5.35318 -0.0 0.0 -0.0 -8.83848 23.5264 -9.58966 4.00297 -24.1791 66.5147 1.85157 -42.5232 0.720519 -15.1775 -0.774651 1.77368 -0.31123 9.59959 1.97954 -0.0 0.0 -0.0 11.9643 13.8047 -24.1521 -20.2563 13.7248 -71.9633 0.615096 16.9461 -0.0916321 15.9615 -0.283687 2.01263 2.12071 5.3932 -12.1022 0.0 0.0 0.0 -22.0675 27.8546 9.07216 -25.1085 0.200135 3.8172 32.876 -13.6144 -4.43878 -39.7348 0.0 0.0 -0.0 0.0 -0.0 25.349 16.5862 -9.66407 -9.00709 -0.264751 -1.35554 18.3986 -3.18514 2.53664 -10.7758 0.0 0.0 0.0 0.0 0.0 
2720.3593685 724.266 -1499.18291654 1.45869257743 65.6788351895 -7.30076909801 2.21546 0.399066 3.3126 2.22154 0.187588 3.33125 2.23186 -0.388319 3.31387 2.21656 0.139618 3.3336 -17.5637 17.2728 -1.92802 -19.1473 34.22 5.35318 -0.0 0.0 -0.0 -8.83848 23.5264 -9.58966 4.00297 -24.1791 66.5147 1.85157 -42.5232 0.720519 -15.1775 -0.774651 1.77368 -0.31123 9.59959 1.97954 -0.0 0.0 -0.0 11.9643 13.8047 -24.1521 -20.2563 13.7248 -71.9633 0.615096 16.9461 -0.0916321 15.9615 -0.283687 2.01263 2.12071 5.3932 -12.1022 0.0 0.0 0.0 -22.0675 27.8546 9.07216 -25.1085 0.200135 3.8172 32.876 -13.6144 -4.43878 -39.7348 0.0 0.0 -0.0 0.0 -0.0 25.349 16.5862 -9.66407 -9.00709 -0.264751 -1.35554 18.3986 -3.18514 2.53664 -10.7758 0.0 0.0 0.0 0.0 0.0 
2720.39497982 724.266 -1499.29556022 1.45419572173 65.5987496007 -7.29583272421 2.21546 0.399066 3.3126 2.22154 0.187588 3.33125 2.23186 -0.388319 3.31387 2.21656 0.139618 3.3336 -17.5637 17.2728 -1.92802 -19.1473 34.22 5.35318 -0.0 0.0 -0.0 -8.83848 23.5264 -9.58966 4.00297 -24.1791 66.5147 1.85157 -42.5232 0.720519 -15.1775 -0.774651 1.77368 -0.31123 9.59959 1.97954 -0.0 0.0 -0.0 11.9643 13.8047 -24.1521 -20.2563 13.7248 -71.9633 0.615096 16.9461 -0.0916321 15.9615 -0.283687 2.01263 2.12071 5.3932 -12.1022 0.0 0.0 0.0 -22.0675 27.8546 9.07216 -25.1085 0.200135 3.8172 32.876 -13.6144 -4.43878 -39.7348 0.0 0.0 -0.0 0.0 -0.0 25.349 16.5862 -9.66407 -9.00709 -0.264751 -1.35554 18.3986 -3.18514 2.53664 -10.7758 0.0 0.0 0.0 0.0 0.0 
